<?xml version="1.0" encoding="UTF-8"?>
<svg xmlns="http://www.w3.org/2000/svg" xmlns:se="https://standardebooks.org/vocab/1.0" version="1.1" viewBox="0 0 1400 590" se:generated-from="06c8f14935da304bc3dbd6531254d4d2b53d93af">
	<path d="M 175.88003,51.404756 159.59885,51.404756 128.44004,128.60001 147.34118,128.60001 153.04895,113.16096 182.42993,113.16096 188.1377,128.60001 207.03884,128.60001 175.88003,51.404756 Z M 176.44145,97.721906 159.03743,97.721906 167.64587,75.265106 167.83301,75.265106 176.44145,97.721906 Z"/>
	<path d="M 245.54406,51.404756 245.54406,128.60001 263.13522,128.60001 263.13522,99.967586 273.70863,99.967586 C 288.7734,99.967586 300.09537,91.078436 300.09537,75.171536 300.09537,59.171066 288.7734,51.404756 273.70863,51.404756 L 245.54406,51.404756 Z M 263.13522,85.932086 263.13522,65.440256 268.09443,65.440256 C 275.01861,65.440256 281.56851,67.779506 281.56851,75.732956 281.56851,83.592836 275.01861,85.932086 268.09443,85.932086 L 263.13522,85.932086 Z"/>
	<path d="M 312.86315,51.404756 312.86315,128.60001 330.45431,128.60001 330.45431,98.096186 354.03395,128.60001 376.39718,128.60001 349.8233,96.692636 C 359.27387,93.698396 365.63663,85.932086 365.63663,74.329406 365.63663,59.171066 354.78251,51.404756 340.4663,51.404756 L 312.86315,51.404756 Z M 330.45431,85.651376 330.45431,65.440256 332.51285,65.440256 C 339.15632,65.440256 347.10977,65.908106 347.10977,75.545816 347.10977,85.183526 339.15632,85.651376 332.51285,85.651376 L 330.45431,85.651376 Z"/>
	<path d="M 402.52499,51.404756 384.93383,51.404756 384.93383,128.60001 402.52499,128.60001 402.52499,51.404756 Z"/>
	<path d="M 436.40009,80.692166 436.58723,80.692166 467.27819,128.60001 484.86935,128.60001 484.86935,51.404756 467.27819,51.404756 467.27819,99.312596 467.09105,99.312596 436.40009,51.404756 418.80893,51.404756 418.80893,128.60001 436.40009,128.60001 436.40009,80.692166 Z"/>
	<path d="M 539.26702,112.69311 C 521.58229,112.69311 513.81598,100.34187 513.81598,89.955596 513.81598,79.662896 521.58229,67.311656 539.26702,67.311656 548.24974,67.311656 554.42536,72.083726 554.42536,72.083726 L 561.91096,57.112526 C 561.91096,57.112526 553.30252,50.001206 536.55349,50.001206 514.65811,50.001206 494.7277,67.966646 494.7277,90.142736 494.7277,112.22526 514.75168,130.00356 536.55349,130.00356 553.30252,130.00356 561.91096,122.89224 561.91096,122.89224 L 554.42536,107.92104 C 554.42536,107.92104 548.24974,112.69311 539.26702,112.69311 Z"/>
	<path d="M 617.89783,51.404756 573.73279,51.404756 573.73279,128.60001 617.89783,128.60001 617.89783,113.16096 591.32395,113.16096 591.32395,97.628336 616.77499,97.628336 616.77499,82.189286 591.32395,82.189286 591.32395,66.843806 617.89783,66.843806 617.89783,51.404756 Z"/>
	<path d="M 661.45596,50.001206 C 649.01115,50.001206 636.28563,59.171066 636.28563,73.580846 636.28563,81.627866 641.71269,88.832756 650.97612,93.417686 660.14598,98.002616 668.38014,100.52901 668.38014,106.14321 668.38014,113.3481 661.08168,113.72238 657.24531,113.72238 648.63687,113.72238 638.34417,105.02037 638.34417,105.02037 L 629.54859,119.80443 C 629.54859,119.80443 640.49628,130.00356 658.55529,130.00356 673.62006,130.00356 687.65556,123.54723 687.65556,105.11394 687.65556,95.008376 678.20499,87.709916 669.59655,84.060686 660.80097,80.317886 653.50251,77.230076 653.50251,72.925856 653.50251,68.715206 656.68389,66.001676 662.67237,66.001676 670.62582,66.001676 678.29856,71.335166 678.29856,71.335166 L 685.40988,57.299666 C 685.40988,57.299666 675.49146,50.001206 661.45596,50.001206 Z"/>
	<path d="M 727.49576,50.001206 C 715.05095,50.001206 702.32543,59.171066 702.32543,73.580846 702.32543,81.627866 707.75249,88.832756 717.01592,93.417686 726.18578,98.002616 734.41994,100.52901 734.41994,106.14321 734.41994,113.3481 727.12148,113.72238 723.28511,113.72238 714.67667,113.72238 704.38397,105.02037 704.38397,105.02037 L 695.58839,119.80443 C 695.58839,119.80443 706.53608,130.00356 724.59509,130.00356 739.65986,130.00356 753.69536,123.54723 753.69536,105.11394 753.69536,95.008376 744.24479,87.709916 735.63635,84.060686 726.84077,80.317886 719.54231,77.230076 719.54231,72.925856 719.54231,68.715206 722.72369,66.001676 728.71217,66.001676 736.66562,66.001676 744.33836,71.335166 744.33836,71.335166 L 751.44968,57.299666 C 751.44968,57.299666 741.53126,50.001206 727.49576,50.001206 Z"/>
	<path d="M 794.04133,89.955596 C 794.04133,112.50597 810.13537,130.00356 832.96645,130.00356 855.14254,130.00356 871.798,112.50597 871.798,89.955596 871.798,67.405226 854.39398,50.001206 832.96645,50.001206 811.72606,50.001206 794.04133,67.405226 794.04133,89.955596 Z M 813.03604,89.955596 C 813.03604,78.446486 819.3988,66.937376 832.96645,66.937376 846.62767,66.937376 852.80329,78.446486 852.80329,89.955596 852.80329,101.46471 847.00195,112.97382 832.96645,112.97382 818.55667,112.97382 813.03604,101.46471 813.03604,89.955596 Z"/>
	<path d="M 929.19277,51.404756 884.55988,51.404756 884.55988,128.60001 902.15104,128.60001 902.15104,97.628336 927.13423,97.628336 927.13423,82.189286 902.15104,82.189286 902.15104,66.843806 929.19277,66.843806 929.19277,51.404756 Z"/>
	<path d="M 1036.9588,128.60001 1054.5499,128.60001 1047.6258,51.404756 1028.9118,51.404756 1011.7885,95.944076 994.66515,51.404756 975.95115,51.404756 969.02697,128.60001 986.61813,128.60001 990.26736,82.844276 990.73521,82.844276 1006.5485,128.13216 1017.0284,128.13216 1032.8417,82.844276 1033.3096,82.844276 1036.9588,128.60001 Z"/>
	<path d="M 1105.8028,51.404756 1089.5216,51.404756 1058.3628,128.60001 1077.264,128.60001 1082.9717,113.16096 1112.3527,113.16096 1118.0605,128.60001 1136.9616,128.60001 1105.8028,51.404756 Z M 1106.3642,97.721906 1088.9602,97.721906 1097.5687,75.265106 1097.7558,75.265106 1106.3642,97.721906 Z"/>
	<path d="M 1144.8813,51.404756 1144.8813,128.60001 1162.4724,128.60001 1162.4724,98.096186 1186.0521,128.60001 1208.4153,128.60001 1181.8414,96.692636 C 1191.292,93.698396 1197.6548,85.932086 1197.6548,74.329406 1197.6548,59.171066 1186.8006,51.404756 1172.4844,51.404756 L 1144.8813,51.404756 Z M 1162.4724,85.651376 1162.4724,65.440256 1164.531,65.440256 C 1171.1745,65.440256 1179.1279,65.908106 1179.1279,75.545816 1179.1279,85.183526 1171.1745,85.651376 1164.531,85.651376 L 1162.4724,85.651376 Z"/>
	<path d="M 1245.3973,50.001206 C 1232.9525,50.001206 1220.227,59.171066 1220.227,73.580846 1220.227,81.627866 1225.654,88.832756 1234.9175,93.417686 1244.0873,98.002616 1252.3215,100.52901 1252.3215,106.14321 1252.3215,113.3481 1245.023,113.72238 1241.1867,113.72238 1232.5782,113.72238 1222.2855,105.02037 1222.2855,105.02037 L 1213.4899,119.80443 C 1213.4899,119.80443 1224.4376,130.00356 1242.4966,130.00356 1257.5614,130.00356 1271.5969,123.54723 1271.5969,105.11394 1271.5969,95.008376 1262.1463,87.709916 1253.5379,84.060686 1244.7423,80.317886 1237.4439,77.230076 1237.4439,72.925856 1237.4439,68.715206 1240.6252,66.001676 1246.6137,66.001676 1254.5672,66.001676 1262.2399,71.335166 1262.2399,71.335166 L 1269.3512,57.299666 C 1269.3512,57.299666 1259.4328,50.001206 1245.3973,50.001206 Z"/>
	<path d="M 224.55576,231.05151 191.4308,231.05151 191.4308,288.95001 224.55576,288.95001 224.55576,277.37031 204.62464,277.37031 204.62464,265.72043 223.7136,265.72043 223.7136,254.14073 204.62464,254.14073 204.62464,242.63121 224.55576,242.63121 224.55576,231.05151 Z"/>
	<path d="M 237.14069,231.05151 237.14069,288.95001 253.91371,288.95001 C 269.84457,288.95001 283.10859,276.87905 283.10859,259.96567 283.10859,243.12247 269.77439,231.05151 253.91371,231.05151 L 237.14069,231.05151 Z M 250.33453,277.15977 250.33453,242.84175 252.36975,242.84175 C 262.19495,242.84175 268.86205,250.35101 268.86205,260.03585 268.79187,269.72069 262.12477,277.15977 252.36975,277.15977 L 250.33453,277.15977 Z"/>
	<path d="M 346.30754,256.52685 319.56896,256.52685 319.56896,266.70295 332.90316,266.70295 C 332.90316,273.79113 326.65714,277.86157 320.34094,277.86157 312.20006,277.86157 305.60314,269.86105 305.60314,260.03585 305.60314,250.00011 312.20006,241.92941 320.34094,241.92941 325.46408,241.92941 329.88542,243.96463 333.25406,249.36849 L 341.8862,239.89419 C 336.83324,233.78853 329.74506,229.99881 319.56896,229.99881 303.2872,229.99881 291.3566,243.40319 291.3566,260.03585 291.3566,276.59833 303.989,290.00271 319.56896,290.00271 330.93812,290.00271 343.14944,283.75669 346.30754,269.08907 L 346.30754,256.52685 Z"/>
	<path d="M 386.4765,231.05151 374.26518,231.05151 350.89524,288.95001 365.0716,288.95001 369.35258,277.37031 391.3891,277.37031 395.67008,288.95001 409.84644,288.95001 386.4765,231.05151 Z M 386.89758,265.79061 373.8441,265.79061 380.30066,248.94741 380.44102,248.94741 386.89758,265.79061 Z"/>
	<path d="M 417.03627,231.05151 417.03627,288.95001 430.23011,288.95001 430.23011,266.07133 447.91547,288.95001 464.68849,288.95001 444.75737,265.01863 C 451.84555,262.77287 456.61779,256.94793 456.61779,248.24561 456.61779,236.87645 448.47691,231.05151 437.73937,231.05151 L 417.03627,231.05151 Z M 430.23011,256.73739 430.23011,241.57851 431.77407,241.57851 C 436.75685,241.57851 442.72215,241.92941 442.72215,249.15795 442.72215,256.38649 436.75685,256.73739 431.77407,256.73739 L 430.23011,256.73739 Z"/>
	<path d="M 496.53093,231.05151 496.53093,288.95001 509.72477,288.95001 509.72477,266.07133 527.41013,288.95001 544.18315,288.95001 524.25203,265.01863 C 531.34021,262.77287 536.11245,256.94793 536.11245,248.24561 536.11245,236.87645 527.97157,231.05151 517.23403,231.05151 L 496.53093,231.05151 Z M 509.72477,256.73739 509.72477,241.57851 511.26873,241.57851 C 516.25151,241.57851 522.21681,241.92941 522.21681,249.15795 522.21681,256.38649 516.25151,256.73739 511.26873,256.73739 L 509.72477,256.73739 Z"/>
	<path d="M 565.02958,231.05151 551.83574,231.05151 551.83574,288.95001 565.02958,288.95001 565.02958,231.05151 Z"/>
	<path d="M 607.10872,277.01941 C 593.8447,277.01941 588.01976,267.75565 588.01976,259.96567 588.01976,252.24587 593.8447,242.98211 607.10872,242.98211 613.846,242.98211 618.47788,246.56129 618.47788,246.56129 L 624.09228,235.33249 C 624.09228,235.33249 617.63572,229.99881 605.0735,229.99881 588.65138,229.99881 573.70304,243.47337 573.70304,260.10603 573.70304,276.66851 588.72156,290.00271 605.0735,290.00271 617.63572,290.00271 624.09228,284.66903 624.09228,284.66903 L 618.47788,273.44023 C 618.47788,273.44023 613.846,277.01941 607.10872,277.01941 Z"/>
	<path d="M 667.33381,231.05151 634.20885,231.05151 634.20885,288.95001 667.33381,288.95001 667.33381,277.37031 647.40269,277.37031 647.40269,265.72043 666.49165,265.72043 666.49165,254.14073 647.40269,254.14073 647.40269,242.63121 667.33381,242.63121 667.33381,231.05151 Z"/>
	<path d="M 704.1086,231.05151 704.1086,288.95001 726.07494,288.95001 C 738.07572,288.95001 745.02354,282.35309 745.02354,272.80861 745.02354,263.47467 739.9004,259.47441 732.67186,258.21117 737.58446,255.68469 739.9004,251.12299 739.9004,245.78931 739.9004,234.77105 732.04024,231.05151 722.07468,231.05151 L 704.1086,231.05151 Z M 717.30244,253.71965 717.30244,241.22761 718.35514,241.22761 C 724.1099,241.22761 727.12764,242.98211 727.12764,247.12273 727.12764,251.96515 724.03972,253.71965 718.35514,253.71965 L 717.30244,253.71965 Z M 717.30244,278.77391 717.30244,265.08881 721.44306,265.08881 C 727.68908,265.08881 731.1279,266.98367 731.1279,272.31735 731.1279,276.87905 727.68908,278.77391 721.44306,278.77391 L 717.30244,278.77391 Z"/>
	<path d="M 800.34368,231.05151 787.14984,231.05151 787.14984,264.52737 C 787.14984,274.21221 784.20228,277.01941 777.74572,277.01941 771.28916,277.01941 768.3416,274.21221 768.3416,264.52737 L 768.3416,231.05151 755.14776,231.05151 755.14776,268.38727 C 755.14776,282.70399 763.00792,290.00271 777.74572,290.00271 792.48352,290.00271 800.34368,282.70399 800.34368,268.38727 L 800.34368,231.05151 Z"/>
	<path d="M 813.07338,231.05151 813.07338,288.95001 826.26722,288.95001 826.26722,266.07133 843.95258,288.95001 860.7256,288.95001 840.79448,265.01863 C 847.88266,262.77287 852.6549,256.94793 852.6549,248.24561 852.6549,236.87645 844.51402,231.05151 833.77648,231.05151 L 813.07338,231.05151 Z M 826.26722,256.73739 826.26722,241.57851 827.81118,241.57851 C 832.79396,241.57851 838.75926,241.92941 838.75926,249.15795 838.75926,256.38649 832.79396,256.73739 827.81118,256.73739 L 826.26722,256.73739 Z"/>
	<path d="M 868.37813,231.05151 868.37813,288.95001 881.57197,288.95001 881.57197,266.07133 899.25733,288.95001 916.03035,288.95001 896.09923,265.01863 C 903.18741,262.77287 907.95965,256.94793 907.95965,248.24561 907.95965,236.87645 899.81877,231.05151 889.08123,231.05151 L 868.37813,231.05151 Z M 881.57197,256.73739 881.57197,241.57851 883.11593,241.57851 C 888.09871,241.57851 894.06401,241.92941 894.06401,249.15795 894.06401,256.38649 888.09871,256.73739 883.11593,256.73739 L 881.57197,256.73739 Z"/>
	<path d="M 921.08628,259.96567 C 921.08628,276.87905 933.15724,290.00271 950.28116,290.00271 966.91382,290.00271 979.40586,276.87905 979.40586,259.96567 979.40586,243.05229 966.35238,229.99881 950.28116,229.99881 934.3503,229.99881 921.08628,243.05229 921.08628,259.96567 Z M 935.33282,259.96567 C 935.33282,251.33353 940.10506,242.70139 950.28116,242.70139 960.52744,242.70139 965.15932,251.33353 965.15932,259.96567 965.15932,268.59781 960.80816,277.22995 950.28116,277.22995 939.47344,277.22995 935.33282,268.59781 935.33282,259.96567 Z"/>
	<path d="M 1034.7217,231.05151 1021.5278,231.05151 1021.5278,264.52737 C 1021.5278,274.21221 1018.5803,277.01941 1012.1237,277.01941 1005.6672,277.01941 1002.7196,274.21221 1002.7196,264.52737 L 1002.7196,231.05151 989.52575,231.05151 989.52575,268.38727 C 989.52575,282.70399 997.38591,290.00271 1012.1237,290.00271 1026.8615,290.00271 1034.7217,282.70399 1034.7217,268.38727 L 1034.7217,231.05151 Z"/>
	<path d="M 1099.8056,256.52685 1073.067,256.52685 1073.067,266.70295 1086.4012,266.70295 C 1086.4012,273.79113 1080.1552,277.86157 1073.839,277.86157 1065.6981,277.86157 1059.1012,269.86105 1059.1012,260.03585 1059.1012,250.00011 1065.6981,241.92941 1073.839,241.92941 1078.9621,241.92941 1083.3835,243.96463 1086.7521,249.36849 L 1095.3842,239.89419 C 1090.3313,233.78853 1083.2431,229.99881 1073.067,229.99881 1056.7852,229.99881 1044.8546,243.40319 1044.8546,260.03585 1044.8546,276.59833 1057.487,290.00271 1073.067,290.00271 1084.4362,290.00271 1096.6475,283.75669 1099.8056,269.08907 L 1099.8056,256.52685 Z"/>
	<path d="M 1123.7629,265.72043 1142.4308,265.72043 1142.4308,288.95001 1155.6247,288.95001 1155.6247,231.05151 1142.4308,231.05151 1142.4308,254.14073 1123.7629,254.14073 1123.7629,231.05151 1110.5691,231.05151 1110.5691,288.95001 1123.7629,288.95001 1123.7629,265.72043 Z"/>
	<path d="M 1188.9906,229.99881 C 1179.6566,229.99881 1170.1121,236.87645 1170.1121,247.68417 1170.1121,253.71965 1174.1826,259.12351 1181.1304,262.56233 1188.008,266.00115 1194.1839,267.89601 1194.1839,272.10681 1194.1839,277.51067 1188.7098,277.79139 1185.8325,277.79139 1179.3759,277.79139 1171.6561,271.26465 1171.6561,271.26465 L 1165.0592,282.35309 C 1165.0592,282.35309 1173.2702,290.00271 1186.815,290.00271 1198.114,290.00271 1208.641,285.16029 1208.641,271.33483 1208.641,263.75539 1201.5528,258.28135 1195.0962,255.54433 1188.4993,252.73713 1183.0253,250.42119 1183.0253,247.19291 1183.0253,244.03481 1185.4114,241.99959 1189.9029,241.99959 1195.8682,241.99959 1201.623,245.99985 1201.623,245.99985 L 1206.9566,235.47285 C 1206.9566,235.47285 1199.5176,229.99881 1188.9906,229.99881 Z"/>
	<path d="M 378.81301,500.70319 356.49704,500.70319 356.49704,539.29999 365.29243,539.29999 365.29243,523.81448 377.78376,523.81448 377.78376,516.09512 365.29243,516.09512 365.29243,508.42255 378.81301,508.42255 378.81301,500.70319 Z"/>
	<path d="M 387.99579,500.70319 387.99579,539.29999 396.79119,539.29999 396.79119,524.0484 408.58075,539.29999 419.76213,539.29999 406.47547,523.34664 C 411.20066,521.84956 414.38197,517.96648 414.38197,512.16527 414.38197,504.58626 408.95503,500.70319 401.79707,500.70319 L 387.99579,500.70319 Z M 396.79119,517.82613 396.79119,507.72079 397.82043,507.72079 C 401.1421,507.72079 405.11874,507.95471 405.11874,512.77346 405.11874,517.59221 401.1421,517.82613 397.82043,517.82613 L 396.79119,517.82613 Z"/>
	<path d="M 446.13292,500.70319 437.9925,500.70319 422.41343,539.29999 431.8638,539.29999 434.71762,531.58063 449.4078,531.58063 452.26162,539.29999 461.71199,539.29999 446.13292,500.70319 Z M 446.41362,523.86127 437.7118,523.86127 442.01593,512.63311 442.10949,512.63311 446.41362,523.86127 Z"/>
	<path d="M 476.96719,515.34658 477.06075,515.34658 492.40591,539.29999 501.2013,539.29999 501.2013,500.70319 492.40591,500.70319 492.40591,524.6566 492.31234,524.6566 476.96719,500.70319 468.17179,500.70319 468.17179,539.29999 476.96719,539.29999 476.96719,515.34658 Z"/>
	<path d="M 546.95821,539.29999 528.99316,518.99573 544.52544,500.70319 533.85869,500.70319 520.61882,516.4694 520.61882,500.70319 511.82343,500.70319 511.82343,539.29999 520.61882,539.29999 520.61882,522.92559 534.84116,539.29999 546.95821,539.29999 Z"/>
	<path d="M 593.5221,500.70319 571.44005,500.70319 571.44005,539.29999 593.5221,539.29999 593.5221,531.58063 580.23544,531.58063 580.23544,523.81448 592.96069,523.81448 592.96069,516.09512 580.23544,516.09512 580.23544,508.42255 593.5221,508.42255 593.5221,500.70319 Z"/>
	<path d="M 608.91179,529.28821 C 605.9644,529.28821 603.57842,531.6742 603.57842,534.66837 603.57842,537.61576 605.9644,540.00175 608.91179,540.00175 611.90597,540.00175 614.29195,537.61576 614.29195,534.66837 614.29195,531.6742 611.90597,529.28821 608.91179,529.28821 Z"/>
	<path d="M 656.03563,500.00143 C 649.81336,500.00143 643.45074,504.58626 643.45074,511.791 643.45074,515.81442 646.16421,519.41679 650.79582,521.7092 655.38066,524.00162 659.49765,525.26479 659.49765,528.07183 659.49765,531.6742 655.8485,531.86133 653.93035,531.86133 649.62622,531.86133 644.47998,527.51042 644.47998,527.51042 L 640.08229,534.90229 C 640.08229,534.90229 645.55602,540.00175 654.58533,540.00175 662.11755,540.00175 669.13515,536.77365 669.13515,527.5572 669.13515,522.50453 664.40997,518.85538 660.10584,517.0308 655.70814,515.15944 652.05899,513.61557 652.05899,511.46351 652.05899,509.35823 653.64965,508.00149 656.64382,508.00149 660.62046,508.00149 664.45675,510.66818 664.45675,510.66818 L 668.01234,503.65058 C 668.01234,503.65058 663.05323,500.00143 656.03563,500.00143 Z"/>
	<path d="M 697.32248,531.34671 C 688.4803,531.34671 684.59723,525.17122 684.59723,519.9782 684.59723,514.83196 688.4803,508.65647 697.32248,508.65647 701.81374,508.65647 704.90149,511.04245 704.90149,511.04245 L 708.64421,503.55701 C 708.64421,503.55701 704.34008,500.00143 695.96574,500.00143 685.01829,500.00143 675.0533,508.98396 675.0533,520.07176 675.0533,531.11279 685.06507,540.00175 695.96574,540.00175 704.34008,540.00175 708.64421,536.44616 708.64421,536.44616 L 704.90149,528.96072 C 704.90149,528.96072 701.81374,531.34671 697.32248,531.34671 Z"/>
	<path d="M 725.85045,523.81448 738.29499,523.81448 738.29499,539.29999 747.09038,539.29999 747.09038,500.70319 738.29499,500.70319 738.29499,516.09512 725.85045,516.09512 725.85045,500.70319 717.05506,500.70319 717.05506,539.29999 725.85045,539.29999 725.85045,523.81448 Z"/>
	<path d="M 755.96028,519.9782 C 755.96028,531.25314 764.00713,540.00175 775.42242,540.00175 786.51023,540.00175 794.83778,531.25314 794.83778,519.9782 794.83778,508.70325 786.13596,500.00143 775.42242,500.00143 764.80245,500.00143 755.96028,508.70325 755.96028,519.9782 Z M 765.45743,519.9782 C 765.45743,514.22376 768.63874,508.46933 775.42242,508.46933 782.25289,508.46933 785.34063,514.22376 785.34063,519.9782 785.34063,525.73263 782.44002,531.48706 775.42242,531.48706 768.21769,531.48706 765.45743,525.73263 765.45743,519.9782 Z"/>
	<path d="M 801.98765,519.9782 C 801.98765,531.25314 810.0345,540.00175 821.4498,540.00175 832.53761,540.00175 840.86516,531.25314 840.86516,519.9782 840.86516,508.70325 832.16333,500.00143 821.4498,500.00143 810.82983,500.00143 801.98765,508.70325 801.98765,519.9782 Z M 811.48481,519.9782 C 811.48481,514.22376 814.66612,508.46933 821.4498,508.46933 828.28026,508.46933 831.36801,514.22376 831.36801,519.9782 831.36801,525.73263 828.4674,531.48706 821.4498,531.48706 814.24506,531.48706 811.48481,525.73263 811.48481,519.9782 Z"/>
	<path d="M 858.54143,515.34658 858.635,515.34658 873.98015,539.29999 882.77554,539.29999 882.77554,500.70319 873.98015,500.70319 873.98015,524.6566 873.88658,524.6566 858.54143,500.70319 849.74604,500.70319 849.74604,539.29999 858.54143,539.29999 858.54143,515.34658 Z"/>
	<path d="M 891.66667,519.9782 C 891.66667,531.25314 899.71352,540.00175 911.12881,540.00175 922.21662,540.00175 930.54417,531.25314 930.54417,519.9782 930.54417,508.70325 921.84235,500.00143 911.12881,500.00143 900.50885,500.00143 891.66667,508.70325 891.66667,519.9782 Z M 901.16382,519.9782 C 901.16382,514.22376 904.34513,508.46933 911.12881,508.46933 917.95928,508.46933 921.04702,514.22376 921.04702,519.9782 921.04702,525.73263 918.14641,531.48706 911.12881,531.48706 903.92408,531.48706 901.16382,525.73263 901.16382,519.9782 Z"/>
	<path d="M 950.03332,539.29999 956.95735,539.29999 973.14461,500.70319 963.22641,500.70319 953.49533,526.06012 943.76426,500.70319 933.84605,500.70319 950.03332,539.29999 Z"/>
	<path d="M 1001.6865,500.70319 979.6044,500.70319 979.6044,539.29999 1001.6865,539.29999 1001.6865,531.58063 988.3998,531.58063 988.3998,523.81448 1001.125,523.81448 1001.125,516.09512 988.3998,516.09512 988.3998,508.42255 1001.6865,508.42255 1001.6865,500.70319 Z"/>
	<path d="M 1011.7428,500.70319 1011.7428,539.29999 1020.5382,539.29999 1020.5382,524.0484 1032.3278,539.29999 1043.5092,539.29999 1030.2225,523.34664 C 1034.9477,521.84956 1038.129,517.96648 1038.129,512.16527 1038.129,504.58626 1032.7021,500.70319 1025.5441,500.70319 L 1011.7428,500.70319 Z M 1020.5382,517.82613 1020.5382,507.72079 1021.5675,507.72079 C 1024.8891,507.72079 1028.8658,507.95471 1028.8658,512.77346 1028.8658,517.59221 1024.8891,517.82613 1021.5675,517.82613 L 1020.5382,517.82613 Z"/>
	<path d="M 594.38019,455.34682 C 594.38019,455.7719 594.72025,455.85692 594.9753,455.85692 595.31537,455.85692 595.99549,455.89943 596.88816,455.89943 597.65331,455.89943 597.90835,456.06946 597.90835,456.7921 597.90835,459.21505 595.99549,465.8463 595.99549,469.07691 595.99549,470.90475 596.29305,472.60507 597.56829,472.60507 599.14109,472.60507 601.47903,470.0971 601.47903,470.0971 601.94661,469.587 602.71176,468.14173 602.71176,467.63164 602.71176,467.33408 602.54173,467.16405 602.28668,467.16405 601.69157,467.16405 601.09645,469.37446 599.65118,469.37446 599.2261,469.37446 598.80102,468.82186 598.80102,468.22675 598.80102,467.71665 598.80102,467.80167 600.07626,459.76766 600.41633,457.59975 601.22398,455.94194 601.22398,454.83673 601.22398,454.53917 600.92642,454.36914 600.62887,454.36914 598.20591,454.36914 597.48327,454.75171 595.78295,454.75171 L 595.35787,454.75171 C 594.89029,454.75171 594.38019,454.79422 594.38019,455.34682 Z M 598.88604,446.97275 C 598.88604,447.39783 600.03375,449.22567 600.7989,449.22567 601.18147,449.22567 602.66925,447.82291 602.66925,446.97275 602.66925,446.20761 601.8616,444.71983 601.01144,444.71983 600.24629,444.71983 598.88604,446.59018 598.88604,446.97275 Z"/>
	<path d="M 606.1124,468.5243 C 606.1124,472.52006 607.34513,472.52006 608.19529,472.52006 609.00294,472.52006 610.78828,471.6699 611.89349,470.39466 612.91368,469.20443 614.01889,467.75916 614.01889,467.33408 614.01889,466.909 613.80635,466.65395 613.50879,466.65395 612.40358,466.65395 611.9785,469.67202 609.64056,469.67202 609.08796,469.67202 608.96043,469.45948 608.96043,468.01421 608.96043,466.56894 609.47053,463.89093 610.19317,458.87499 611.55342,449.73577 610.83079,451.30856 612.40358,443.06201 612.53111,442.25436 612.82866,441.70176 612.82866,441.10665 612.82866,440.68157 612.61612,440.42652 611.93599,440.42652 610.83079,440.42652 609.89561,440.8516 606.79253,441.06414 606.23992,441.10665 606.15491,441.44671 606.15491,441.65925 606.15491,442.12684 606.53748,442.25436 607.38764,442.25436 607.89773,442.25436 607.98275,442.21185 608.62037,442.21185 609.25799,442.21185 609.68307,442.55192 609.68307,443.06201 609.68307,443.57211 609.04545,447.39783 608.32281,451.98869 607.89773,454.7092 607.68519,457.72727 607.30262,460.40528 607.21761,461.0854 606.1124,466.10135 606.1124,468.5243 Z"/>
	<path d="M 617.23754,468.5243 C 617.23754,472.52006 618.47027,472.52006 619.32043,472.52006 620.12808,472.52006 621.91342,471.6699 623.01863,470.39466 624.03882,469.20443 625.14403,467.75916 625.14403,467.33408 625.14403,466.909 624.93149,466.65395 624.63393,466.65395 623.52872,466.65395 623.10364,469.67202 620.7657,469.67202 620.2131,469.67202 620.08557,469.45948 620.08557,468.01421 620.08557,466.56894 620.59567,463.89093 621.31831,458.87499 622.67856,449.73577 621.95593,451.30856 623.52872,443.06201 623.65625,442.25436 623.9538,441.70176 623.9538,441.10665 623.9538,440.68157 623.74126,440.42652 623.06113,440.42652 621.95593,440.42652 621.02075,440.8516 617.91767,441.06414 617.36506,441.10665 617.28005,441.44671 617.28005,441.65925 617.28005,442.12684 617.66262,442.25436 618.51278,442.25436 619.02287,442.25436 619.10789,442.21185 619.74551,442.21185 620.38313,442.21185 620.80821,442.55192 620.80821,443.06201 620.80821,443.57211 620.17059,447.39783 619.44795,451.98869 619.02287,454.7092 618.81033,457.72727 618.42776,460.40528 618.34275,461.0854 617.23754,466.10135 617.23754,468.5243 Z"/>
	<path d="M 627.0084,459.68264 C 627.0084,459.9802 627.17843,460.23524 627.43348,460.23524 627.64602,460.23524 627.90107,460.06521 628.0711,459.64013 628.66621,458.27988 629.60139,457.17467 629.98396,457.17467 630.53657,457.17467 630.83412,457.59975 630.83412,458.06734 630.83412,460.66032 628.92126,465.3362 628.92126,469.92707 628.92126,471.1598 629.21882,472.64758 630.36653,472.64758 633.46962,472.64758 636.61521,468.77935 638.52807,466.05884 639.80331,464.2735 640.01585,463.33833 640.2709,463.33833 640.39842,463.33833 640.48344,463.50836 640.48344,463.80592 640.48344,464.18849 639.71829,467.54662 639.71829,470.26713 639.71829,471.58488 640.05836,472.56256 640.99353,472.56256 644.98929,472.56256 647.62478,468.22675 647.62478,467.20656 647.62478,466.82398 647.58227,466.31389 647.02967,466.31389 646.137,466.31389 645.96697,469.45948 643.37398,469.45948 642.99141,469.45948 642.43881,469.37446 642.43881,468.43929 642.43881,466.27138 645.03179,455.98444 645.03179,454.83673 645.03179,454.19911 644.30916,453.90155 643.62903,453.90155 643.20395,453.90155 642.52382,454.02908 642.3963,454.58168 641.41861,458.32238 640.22839,462.23312 637.46537,465.59125 635.46749,467.9717 633.97971,469.96958 632.61946,469.96958 632.3219,469.96958 631.85431,469.5445 631.85431,468.82186 631.85431,465.59125 633.42711,460.83036 633.42711,457.08965 633.42711,456.57956 633.34209,453.98657 631.81181,453.98657 628.96377,453.98657 627.0084,457.8973 627.0084,459.68264 Z"/>
	<path d="M 649.12916,469.88456 C 649.12916,472.13748 652.18974,472.69009 653.84755,472.69009 659.28857,472.69009 660.4788,468.65183 660.4788,467.12154 660.4788,464.2735 658.86349,463.08328 657.54575,461.5955 656.52555,460.49029 654.18761,458.74746 654.18761,457.13216 654.18761,455.85692 654.82523,454.87924 656.44054,454.87924 658.09835,454.87924 658.26838,457.25968 659.79867,457.25968 660.01121,457.25968 661.41397,457.13216 661.41397,455.81441 661.41397,454.1566 659.75616,453.604 657.46073,453.604 654.14511,453.604 651.67964,455.55936 651.67964,458.4074 651.67964,460.95788 653.29495,462.06309 654.99527,463.80592 656.52555,465.3362 657.92832,466.56894 657.92832,468.56681 657.92832,469.07691 657.63076,471.28732 654.52768,471.28732 651.93469,471.28732 652.65733,468.35427 650.48942,468.35427 649.97932,468.35427 649.12916,468.56681 649.12916,469.88456 Z"/>
	<path d="M 663.92128,455.60187 C 663.92128,456.7921 666.42926,455.85692 666.42926,456.74959 666.42926,457.8973 664.64392,464.7836 664.64392,468.69434 664.64392,472.00996 666.21672,472.69009 667.36443,472.69009 669.99993,472.69009 673.61311,469.79954 673.61311,468.69434 673.61311,468.09922 673.27304,468.09922 673.14552,468.09922 672.46539,468.09922 671.48771,469.96958 669.14977,469.96958 668.97974,469.96958 667.40694,469.88456 667.40694,467.63164 667.40694,466.95151 668.38462,461.42547 668.7672,458.78997 669.02224,457.04714 668.89472,456.282 670.12745,456.282 671.06263,456.282 672.89047,456.49454 673.5706,456.49454 674.33574,456.49454 674.59079,456.23949 674.59079,455.26181 674.59079,454.75171 674.37825,454.45416 673.48558,454.45416 673.018,454.45416 672.67793,454.49666 671.02012,454.49666 669.61736,454.49666 669.53234,454.45416 669.53234,454.19911 669.53234,453.56149 670.29748,451.56361 670.29748,451.01101 670.29748,450.62844 670.08494,450.50091 669.8724,450.50091 669.19228,450.50091 669.10726,451.05352 667.40694,452.83885 665.53659,454.79422 663.92128,454.75171 663.92128,455.60187 Z"/>
	<path d="M 676.02876,459.59762 C 676.02876,460.19274 676.36882,460.32026 676.53885,460.32026 676.75139,460.32026 676.87892,460.19274 677.00644,460.06521 677.26149,459.76766 677.60155,457.21718 679.34438,457.21718 680.10952,457.21718 680.78965,457.98232 680.78965,460.10772 680.78965,463.29582 678.96181,469.5445 678.96181,471.24482 678.96181,472.26501 679.81197,472.35002 680.23705,472.35002 L 680.44959,472.35002 C 681.97988,472.35002 681.89486,472.35002 682.83004,465.12366 L 683.04258,463.7209 C 683.25512,461.93556 684.31782,456.36702 686.23068,456.36702 687.76096,456.36702 687.59093,458.15235 688.52611,458.15235 689.29125,458.15235 689.37627,456.8346 689.46128,456.53705 689.58881,456.06946 689.92887,455.51686 689.92887,454.96425 689.92887,454.36914 689.46128,453.6465 688.35608,453.6465 685.21048,453.6465 683.08508,458.02483 682.78753,458.02483 682.70251,458.02483 682.66,457.98232 681.5973,455.2193 681.34226,454.53917 680.91718,453.73152 680.02451,453.73152 679.64194,453.73152 676.02876,454.75171 676.02876,459.59762 Z"/>
	<path d="M 689.62002,467.33408 C 689.62002,470.0971 690.13012,472.81761 694.16838,472.81761 698.20664,472.81761 701.7348,467.71665 701.94734,467.71665 702.2449,467.71665 701.86233,472.47755 704.58284,472.47755 705.73055,472.47755 707.64341,470.52218 708.70611,468.99189 709.25872,468.22675 709.47126,467.58913 709.47126,467.16405 709.47126,466.99402 709.42875,466.69646 709.08869,466.69646 708.28103,466.69646 707.38837,469.45948 705.9856,469.45948 705.17795,469.45948 704.54033,468.05672 704.54033,466.95151 704.54033,465.3362 704.96541,463.38084 705.30547,461.51048 705.64554,459.59762 705.90059,457.64226 706.28316,456.06946 706.58071,454.83673 707.13332,453.81654 707.13332,453.13641 707.13332,452.66882 706.92078,452.49879 706.66573,452.49879 705.81557,452.49879 705.30547,454.58168 704.45531,454.58168 703.05255,454.58168 702.15988,454.11409 700.84213,454.11409 699.73693,454.11409 698.88677,454.32663 697.73905,454.87924 695.48613,455.94194 693.53076,457.98232 692.00047,460.40528 690.68272,462.53068 689.62002,464.95363 689.62002,467.33408 Z M 692.59558,467.07903 C 692.59558,466.31389 692.6806,465.54874 692.80812,464.7836 693.19069,462.57318 694.21089,460.66032 695.44362,458.61994 696.71886,456.45203 698.97178,455.17679 700.71461,455.17679 701.60728,455.17679 703.52014,455.47435 703.52014,456.66457 703.52014,456.7921 702.37242,464.61357 701.35223,466.65395 700.96966,467.4191 698.97178,470.47967 695.91121,470.47967 694.12587,470.47967 692.59558,469.20443 692.59558,467.07903 Z"/>
	<path d="M 711.49371,455.60187 C 711.49371,456.7921 714.00168,455.85692 714.00168,456.74959 714.00168,457.8973 712.21635,464.7836 712.21635,468.69434 712.21635,472.00996 713.78914,472.69009 714.93686,472.69009 717.57235,472.69009 721.18553,469.79954 721.18553,468.69434 721.18553,468.09922 720.84547,468.09922 720.71795,468.09922 720.03782,468.09922 719.06013,469.96958 716.72219,469.96958 716.55216,469.96958 714.97937,469.88456 714.97937,467.63164 714.97937,466.95151 715.95705,461.42547 716.33962,458.78997 716.59467,457.04714 716.46715,456.282 717.69988,456.282 718.63505,456.282 720.4629,456.49454 721.14303,456.49454 721.90817,456.49454 722.16322,456.23949 722.16322,455.26181 722.16322,454.75171 721.95068,454.45416 721.05801,454.45416 720.59042,454.45416 720.25036,454.49666 718.59255,454.49666 717.18978,454.49666 717.10477,454.45416 717.10477,454.19911 717.10477,453.56149 717.86991,451.56361 717.86991,451.01101 717.86991,450.62844 717.65737,450.50091 717.44483,450.50091 716.7647,450.50091 716.67969,451.05352 714.97937,452.83885 713.10901,454.79422 711.49371,454.75171 711.49371,455.60187 Z"/>
	<path d="M 723.74266,465.93132 C 723.74266,469.71453 725.0604,472.69009 730.45892,472.69009 734.15712,472.69009 737.85531,469.71453 737.85531,468.73684 737.85531,468.4818 737.68528,468.31176 737.34522,468.31176 736.87763,468.31176 735.17731,470.13961 732.75435,470.13961 728.54606,470.13961 726.6332,468.01421 726.6332,464.82611 726.6332,463.7209 726.76072,463.08328 727.35584,463.08328 731.35159,463.04077 733.64702,462.1056 734.02959,461.93556 734.83724,461.5955 738.15287,459.85267 738.15287,456.7921 738.15287,454.92174 736.45255,453.6465 734.45467,453.6465 732.07422,453.6465 730.11886,454.41165 728.54606,455.89943 725.61301,458.61994 723.74266,462.27563 723.74266,465.93132 Z M 727.22831,461.51048 C 727.22831,460.95788 728.206,458.23737 729.48124,456.91962 730.58644,455.7719 731.90419,454.92174 732.96689,454.92174 733.68953,454.92174 735.21982,455.30432 735.21982,456.91962 735.21982,459.59762 731.73416,462.36064 727.61088,462.36064 727.31333,462.36064 727.22831,461.80804 727.22831,461.51048 Z"/>
	<path d="M 740.20787,466.86649 C 740.20787,470.05459 741.69565,472.52006 745.30883,472.52006 749.51712,472.52006 751.68503,467.75916 752.0676,467.75916 752.66271,467.75916 751.68503,472.52006 754.66059,472.52006 757.42361,472.52006 760.10161,468.22675 760.10161,467.33408 760.10161,467.16405 759.97409,466.95151 759.63402,466.95151 758.95389,466.95151 757.97621,469.587 756.10586,469.587 755.12817,469.587 755.00065,468.69434 755.00065,467.75916 755.00065,466.48392 755.42573,463.80592 755.89332,460.57531 758.27377,443.18954 758.69885,441.82928 758.69885,440.72407 758.69885,440.3415 758.40129,440.00144 758.01872,440.00144 756.871,440.00144 757.12605,440.08645 754.7456,440.68157 753.55538,440.97912 752.0676,440.80909 752.0676,441.53173 752.0676,441.82928 752.32265,441.99931 752.74773,441.99931 752.79023,441.99931 753.76792,441.95681 754.23551,441.95681 754.87313,441.95681 755.46824,442.38189 755.46824,443.01951 755.46824,443.31706 754.06547,454.49666 753.93795,454.49666 752.74773,454.49666 751.89757,453.94406 750.79236,453.94406 745.73391,453.94406 740.20787,460.27775 740.20787,466.86649 Z M 743.18343,465.67627 C 743.18343,461.21293 746.66908,454.83673 750.57982,454.83673 751.72753,454.83673 753.42785,455.38933 753.42785,456.53705 753.42785,458.23737 752.79023,465.71878 751.08991,467.84418 749.98471,469.24694 748.32689,470.05459 746.79661,470.05459 744.20362,470.05459 743.18343,468.14173 743.18343,465.67627 Z"/>
	<path d="M 771.41007,469.16192 C 771.41007,471.62739 774.08807,472.7326 776.59605,472.7326 783.18479,472.7326 788.20073,465.12366 788.20073,459.34258 788.20073,456.57956 786.71295,453.94406 783.52485,453.94406 778.63643,453.94406 776.63855,457.8973 776.04344,457.8973 775.95843,457.8973 775.8309,457.55724 775.8309,457.25968 775.8309,454.19911 778.55141,441.53173 778.55141,440.76658 778.55141,440.29899 778.21135,440.00144 777.74376,440.00144 777.48871,440.00144 776.72357,440.25649 775.06576,440.46903 773.11039,440.72407 771.92017,440.68157 771.92017,441.53173 771.92017,442.12684 772.26023,442.12684 772.72782,442.12684 773.36544,442.12684 773.83303,442.04182 774.47065,442.04182 775.32081,442.04182 775.53335,442.33938 775.53335,442.55192 775.53335,443.57211 775.2783,445.05989 774.89573,446.88773 774.25811,450.03332 773.74801,454.1566 772.98287,458.57743 772.38775,462.02058 771.41007,466.44141 771.41007,469.16192 Z M 774.2156,468.65183 C 774.2156,468.22675 774.68319,463.67839 775.91592,460.32026 777.27617,456.62206 780.03919,456.19698 781.05939,456.19698 783.39733,456.19698 785.22517,458.15235 785.22517,460.5328 785.22517,465.42122 781.31443,471.54237 777.48871,471.54237 774.85322,471.54237 774.2156,470.0971 774.2156,468.65183 Z"/>
	<path d="M 789.84591,477.49349 C 789.84591,479.44886 791.54623,480.00146 793.37408,480.00146 797.36983,480.00146 800.09034,475.15555 802.08821,470.0971 804.59619,463.76341 805.61638,457.8973 805.61638,455.98444 805.61638,454.6667 804.89374,453.73152 803.95857,453.73152 802.93837,453.73152 802.51329,454.53917 802.51329,455.30432 802.51329,456.45203 803.57599,457.30219 803.57599,458.53492 803.57599,461.38296 802.64082,465.93132 802.04571,465.93132 801.57812,465.93132 797.53986,453.85904 793.41658,453.85904 790.8236,453.85904 789.97344,457.55724 789.97344,459.34258 789.97344,460.06521 790.14347,460.27775 790.39852,460.27775 791.67376,460.27775 790.78109,457.08965 793.24655,457.08965 795.49948,457.08965 800.17535,468.05672 800.17535,470.43716 800.17535,472.05247 797.36983,477.49349 794.90436,477.49349 792.949,477.49349 792.90649,476.09073 791.20617,476.09073 790.48353,476.09073 789.84591,476.77086 789.84591,477.49349 Z"/>
</svg>
